<svg width="24" height="17" viewBox="0 0 24 17" fill="none" xmlns="http://www.w3.org/2000/svg">
<path d="M9.29721 5.41511L16.9381 1.00377L17.1508 0.881104L17.2735 1.0934L23.6453 12.1299L23.7682 12.3429L23.5548 12.4662L15.9139 16.8775L15.7016 17L15.5785 16.7868L14.4349 14.8059L7.94242 11.0574L7.72925 10.9343L7.8517 10.722L8.85263 8.98839L8.97595 8.77499L9.18891 8.89788L11.9415 10.4871L9.20672 5.75019L9.08427 5.5379L9.29745 5.41479L9.29721 5.41511ZM16.9697 1.55233L9.755 5.71791L12.8258 11.0366L12.4896 11.3718L9.15532 9.44675L8.40014 10.7547L14.737 14.4133L14.8275 14.5038L15.8813 16.329L23.0965 12.1635L16.9699 1.5526L16.9697 1.55233Z" fill="#159193"/>
<path d="M19.8275 1.60114L18.1313 2.58048L20.7888 7.18344L22.0738 5.49188L19.8275 1.60114ZM17.672 2.27745L19.7943 1.05214L20.0077 0.929031L20.1306 1.14177L22.5813 5.38661L22.663 5.528L22.5641 5.65837L20.9562 7.77496L20.7322 8.06962L20.5477 7.74986L17.5823 2.61373L17.4592 2.40033L17.672 2.27745Z" fill="#159193"/>
<path d="M7.93343 10.5799L8.7703 9.13033L7.65554 7.67133L6.11243 10.344L7.93326 10.5798L7.93343 10.5799ZM9.27792 9.23316L8.27699 10.9668L8.19485 11.109L8.03321 11.0881L5.68406 10.784L5.31738 10.7364L5.50193 10.4169L7.41392 7.10513L7.59825 6.7858L7.82244 7.07914L9.26053 8.96143L9.35985 9.09136L9.27792 9.23316Z" fill="#159193"/>
<path d="M10.2765 7.11375L17.9174 2.70242L18.164 3.12812L10.5231 7.53945L10.2765 7.11375Z" fill="#159193"/>
<path d="M14.6887 14.7541L22.3296 10.3427L22.5743 10.7687L14.9334 15.18L14.6887 14.7541Z" fill="#159193"/>
<path d="M0 12.208C0 12.4201 0.251496 12.5333 0.410278 12.3926C0.463132 12.3457 0.493306 12.2787 0.493306 12.208V12.1763L0.493526 12.1446L0.493966 12.1129L0.494627 12.0814L0.495508 12.0499L0.496609 12.0184L0.49793 11.9869L0.499472 11.9554L0.501234 11.9242L0.505198 11.8616L0.5074 11.8306L0.509822 11.7995L0.512465 11.7685L0.515328 11.7372C0.532506 11.5227 0.291576 11.3899 0.119364 11.5196C0.0640873 11.5628 0.0303944 11.6233 0.023787 11.6934L0.020924 11.7246L0.0180611 11.7588L0.0154184 11.7931L0.0129959 11.8275L0.0107936 11.8618L0.00881161 11.8962L0.0070498 11.9306L0.00550822 11.9649L0.00396664 11.9995L0.00286551 12.0341L0.00198461 12.0686L0.00132393 12.1034L0.000883484 12.1382L0.000443032 12.2078L0 12.208ZM5.39332 7.30803C5.6054 7.30803 5.7186 7.05654 5.57787 6.89776C5.53096 6.8449 5.46402 6.81473 5.39332 6.81473L5.32373 6.81517L5.28894 6.81561L5.25414 6.81627L5.21956 6.81715L5.19138 6.81803C5.0348 6.82508 4.92579 6.96911 4.9608 7.12194C4.98877 7.2369 5.09184 7.31508 5.2101 7.31112L5.2352 7.31024L5.2667 7.30936L5.29819 7.30869L5.3299 7.30825L5.36161 7.30803L5.39332 7.30803ZM3.82907 7.56305C3.93698 7.52672 4.00657 7.4199 3.99555 7.30671C3.98036 7.14793 3.82202 7.04486 3.67094 7.09573L3.66368 7.09815L3.6324 7.10895L3.60135 7.11974L3.57008 7.13075L3.53903 7.14198L3.5082 7.15343L3.47736 7.1651L3.44653 7.177L3.4157 7.18911L3.38509 7.20122L3.3547 7.21355L3.32431 7.2261L3.29392 7.23888L3.26375 7.25165L3.23357 7.26464L3.2034 7.27786L3.18909 7.28424C2.99595 7.37124 2.99639 7.64784 3.18997 7.73417C3.25471 7.76302 3.32761 7.76302 3.39235 7.73373L3.40403 7.72844L3.45864 7.70466L3.48617 7.69298L3.54123 7.67008L3.56898 7.65885L3.59672 7.64784L3.62447 7.63705L3.65244 7.62626L3.68041 7.61569L3.7086 7.60533L3.76498 7.58507L3.79339 7.57516L3.8218 7.56547L3.82907 7.56305ZM2.20691 8.48556C2.37362 8.33911 2.28046 8.06669 2.05848 8.05282C1.99395 8.04973 1.93273 8.07044 1.88384 8.11272L1.8638 8.13011L1.83935 8.15126L1.81513 8.17262L1.7909 8.1942L1.7669 8.21578L1.74311 8.23758L1.71933 8.25961L1.69576 8.28163L1.6722 8.30387L1.64885 8.32634L1.62573 8.3488L1.60261 8.37148L1.5568 8.41729L1.53412 8.44041L1.51165 8.46354L1.50813 8.46728C1.44206 8.53775 1.42224 8.63553 1.45638 8.72604C1.52332 8.8954 1.7387 8.93834 1.86511 8.80775L1.86666 8.80621L1.88714 8.78506L1.92854 8.74322L1.97038 8.70182L1.99153 8.68134L2.01267 8.66107L2.03403 8.64081L2.05561 8.62055L2.07719 8.60051L2.1208 8.56087L2.14282 8.54127L2.16484 8.52189L2.18709 8.50251L2.20713 8.48511L2.20691 8.48556ZM1.04434 9.94851C1.14388 9.75427 0.963738 9.5369 0.754086 9.59879C0.689342 9.61905 0.638247 9.66112 0.606754 9.72102L0.605433 9.72366L0.590458 9.75273L0.575703 9.7818L0.546633 9.84038L0.532318 9.86989L0.518224 9.8994L0.50435 9.92891L0.490475 9.95864L0.476821 9.98859L0.463388 10.0185L0.450174 10.0487L0.437181 10.0789L0.424408 10.1091L0.411635 10.1394L0.399082 10.1698L0.390493 10.1912C0.326848 10.3522 0.441365 10.5257 0.614685 10.5297C0.717969 10.531 0.809143 10.4709 0.848123 10.3749L0.85561 10.3561L0.878514 10.3011L0.890186 10.2736L0.91397 10.2189L0.926083 10.1916L0.938415 10.1646L0.950968 10.1377L0.976514 10.084L0.989508 10.0573L1.01593 10.004L1.02937 9.97758L1.04302 9.95115L1.04434 9.94851Z" fill="#159193"/>
<path d="M1.51257 11.9628C1.51257 12.1749 1.76407 12.2881 1.92285 12.1474C1.9757 12.1005 2.00588 12.0335 2.00588 11.9628V11.9423L2.00632 11.9018L2.00676 11.8816L2.00742 11.8613L2.00808 11.8413L2.00896 11.8212L2.00984 11.801L2.01094 11.7809L2.01359 11.7408L2.01667 11.7008L2.02019 11.6611L2.02416 11.6215L2.02636 11.6017L2.02878 11.5818L2.0312 11.5622L2.03649 11.523L2.03891 11.5054C2.06049 11.3491 1.9332 11.2141 1.77596 11.2253C1.66078 11.2334 1.56608 11.3231 1.55045 11.4371L1.54803 11.4548L1.54494 11.4774L1.53922 11.5232L1.53658 11.5459L1.53173 11.5917L1.52733 11.6375L1.52534 11.6607L1.52358 11.6836L1.52182 11.7067L1.52028 11.7298L1.51896 11.7529L1.51764 11.7763L1.51654 11.7994L1.51477 11.8461L1.51411 11.8692L1.51367 11.8926L1.51323 11.9161L1.51301 11.9395V11.9628L1.51257 11.9628ZM4.33805 8.92615C4.43253 8.90038 4.50344 8.82154 4.51776 8.72442C4.54374 8.54868 4.38078 8.40355 4.20944 8.45002L4.19622 8.45354L4.17442 8.45949L4.13126 8.47182L4.10968 8.47821L4.08831 8.48459L4.06695 8.4912L4.04581 8.49781L4.02467 8.50463L4.00331 8.51168L3.98217 8.51873L3.96102 8.526L3.9401 8.53326L3.91918 8.54075L3.87734 8.55617L3.83594 8.57202L3.79453 8.58832L3.75357 8.60506L3.73309 8.61365L3.71261 8.62246L3.70931 8.62378C3.51617 8.70834 3.51176 8.9812 3.70204 9.07238C3.76656 9.10321 3.84144 9.10453 3.90707 9.07568L3.90751 9.07546L3.92513 9.06797L3.94274 9.0607L3.97842 9.04617L4.0141 9.03207L4.03193 9.02525L4.04999 9.01842L4.08611 9.00521L4.10417 8.99882L4.12245 8.99243L4.159 8.9801L4.19556 8.96821L4.23256 8.95676L4.26956 8.94575L4.307 8.93517L4.32572 8.93011L4.33893 8.92659L4.33805 8.92615ZM2.80199 9.87245C2.94469 9.71014 2.82643 9.45688 2.61017 9.46217C2.54124 9.46481 2.47892 9.49344 2.43289 9.54498L2.42761 9.55092L2.41307 9.56722L2.38444 9.60025L2.37035 9.61677L2.35626 9.63351L2.34216 9.65046L2.32829 9.6672L2.30098 9.70112L2.28732 9.71829L2.27389 9.73547L2.26046 9.75287L2.23403 9.78767L2.22104 9.80506L2.20804 9.82268L2.1825 9.85836L2.15739 9.89403L2.13273 9.93015L2.12061 9.94821L2.11026 9.96363C2.05851 10.0425 2.05587 10.1438 2.10388 10.2248C2.19659 10.3816 2.42232 10.3869 2.52231 10.2349L2.5309 10.2219L2.54147 10.2061L2.55204 10.1905L2.57362 10.1596L2.59564 10.1288L2.60665 10.1136L2.62912 10.0832L2.64057 10.068L2.66347 10.0381L2.69849 9.99379L2.71038 9.97904L2.73416 9.94997L2.74628 9.93544L2.77094 9.90681L2.78327 9.89271L2.79583 9.87862L2.80111 9.87267L2.80199 9.87245Z" fill="#159193"/>
<path d="M2.94072 11.633C2.94072 11.8451 3.19222 11.9583 3.351 11.8175C3.40385 11.7706 3.43403 11.7037 3.43403 11.633V11.6149L3.43447 11.5973L3.43469 11.5883L3.43491 11.579L3.43535 11.5702L3.43579 11.5612L3.43623 11.5524L3.43667 11.5438L3.43733 11.5348L3.43799 11.526L3.43865 11.5174L3.43931 11.5086L3.44019 11.4995L3.44107 11.491L3.44195 11.4821L3.44283 11.4731L3.44372 11.4647L3.44482 11.4562L3.44592 11.4474L3.44702 11.4388L3.45098 11.413L3.4523 11.4042L3.45385 11.3958L3.45539 11.3872L3.45847 11.3705L3.46199 11.3533L3.46728 11.3282L3.46926 11.3201L3.47124 11.3115L3.47521 11.2947L3.47719 11.2866L3.47939 11.2784L3.4838 11.2617L3.486 11.2536L3.49569 11.221L3.49591 11.2201C3.52256 11.1342 3.50053 11.0404 3.43799 10.9756C3.30784 10.8411 3.08012 10.8946 3.02485 11.0736L3.02463 11.0745L3.02133 11.0855L3.01802 11.0968L3.01142 11.1188L3.00217 11.1525L2.9993 11.1637L2.99644 11.1752L2.99358 11.1864L2.98829 11.2088L2.98301 11.2318L2.97816 11.2547L2.97376 11.2776L2.96935 11.3009L2.96539 11.3242L2.96363 11.3357L2.95834 11.3707L2.9568 11.3824L2.95526 11.3938L2.95372 11.4055L2.9524 11.4176L2.95107 11.4293L2.94975 11.4412L2.94865 11.4533L2.94755 11.465L2.94645 11.4769L2.94557 11.489L2.94469 11.5009L2.94381 11.5125L2.94315 11.5247L2.94183 11.5484L2.94138 11.5605L2.94094 11.5722L2.9405 11.5841L2.94006 11.6083V11.6326L2.94072 11.633ZM4.73843 10.2508C4.96395 10.2352 5.05226 9.95199 4.87542 9.81104C4.82653 9.77295 4.76883 9.75511 4.70694 9.75863L4.69791 9.75907L4.68624 9.75995L4.67435 9.76083L4.66224 9.76171L4.65034 9.76281L4.63867 9.76392L4.62656 9.76502L4.61467 9.76634L4.603 9.76766L4.59088 9.76898L4.55587 9.77361L4.52085 9.77889L4.5094 9.78065L4.48606 9.78462L4.47439 9.78682L4.44003 9.79343L4.40568 9.80069L4.38321 9.80598L4.37154 9.80884L4.34908 9.81457L4.33763 9.81765L4.32661 9.82051L4.3156 9.8236L4.30437 9.82668L4.28235 9.83329L4.27112 9.83659L4.26011 9.83989L4.24888 9.84342L4.22685 9.85047L4.21606 9.85399L4.20527 9.85773L4.19426 9.8617L4.18347 9.86544L4.1729 9.86918L4.16211 9.87315L4.15418 9.87623C4.05111 9.91521 3.98571 10.0198 3.99628 10.1295C4.01191 10.2922 4.17686 10.3951 4.3297 10.3374L4.33454 10.3356L4.34247 10.3328L4.35877 10.327L4.36648 10.3244L4.39907 10.3138L4.407 10.3114L4.43959 10.3017L4.44774 10.2995L4.46448 10.2951L4.47262 10.2929L4.48936 10.2885L4.49729 10.2865L4.50566 10.2845L4.51425 10.2826L4.53935 10.2773L4.55653 10.2737L4.56512 10.2722L4.58186 10.2691L4.59044 10.2676L4.59925 10.2663L4.62502 10.2623L4.63361 10.2612L4.64242 10.2601L4.65101 10.259L4.65937 10.2581L4.6684 10.2572L4.67721 10.2563L4.6858 10.2555L4.69483 10.2546L4.70364 10.2539L4.71223 10.2533L4.72104 10.2526L4.73007 10.2519L4.7391 10.2515L4.73843 10.2508Z" fill="#159193"/>
</svg>
