<svg width="68" height="68" viewBox="0 0 68 68" fill="none" xmlns="http://www.w3.org/2000/svg">
<path d="M21.7601 4.07999C12.0089 4.07999 4.08008 12.0088 4.08008 21.76V46.24C4.08008 55.9912 12.0089 63.92 21.7601 63.92H46.2401C55.9913 63.92 63.9201 55.9912 63.9201 46.24V21.76C63.9201 12.0088 55.9913 4.07999 46.2401 4.07999H21.7601ZM50.3201 14.96C51.8161 14.96 53.0401 16.184 53.0401 17.68C53.0401 19.176 51.8161 20.4 50.3201 20.4C48.8241 20.4 47.6001 19.176 47.6001 17.68C47.6001 16.184 48.8241 14.96 50.3201 14.96ZM34.0001 19.04C42.2553 19.04 48.9601 25.7448 48.9601 34C48.9601 42.2552 42.2553 48.96 34.0001 48.96C25.7449 48.96 19.0401 42.2552 19.0401 34C19.0401 25.7448 25.7449 19.04 34.0001 19.04ZM34.0001 21.76C27.2545 21.76 21.7601 27.2544 21.7601 34C21.7601 40.7456 27.2545 46.24 34.0001 46.24C40.7457 46.24 46.2401 40.7456 46.2401 34C46.2401 27.2544 40.7457 21.76 34.0001 21.76Z" fill="#159193"/>
</svg>
