<?xml version="1.0" encoding="UTF-8"?>
<svg width="700pt" height="700pt" version="1.1" viewBox="0 0 700 700" xmlns="http://www.w3.org/2000/svg">
 <g fill-rule="evenodd">
  <path d="m209.55 113.73 0.45312 0.015625 0.36719-0.050781c1.6797-0.24609 8.3828-1.7148 8.3828-8.9258v-17.273c0-6.9648 2.7656-13.633 7.6836-18.566 4.9336-4.918 11.602-7.6836 18.566-7.6836h210c6.9648 0 13.633 2.7656 18.566 7.6836 4.918 4.9336 7.6836 11.602 7.6836 18.566v17.5c0 4.8281 3.9219 8.75 8.75 8.75 0 0 8.75-0.73438 8.75-8.9766v-17.273c0-11.602-4.6016-22.734-12.809-30.941-8.207-8.207-19.34-12.809-30.941-12.809h-210c-11.602 0-22.734 4.6016-30.941 12.809-8.207 8.207-12.809 19.34-12.809 30.941v17.5c0 0.17578 0 0.36719 0.015625 0.54297 0.14062 2.8164 1.332 4.6562 2.8008 5.8789 1.4531 1.3477 3.3789 2.207 5.4805 2.3125z"/>
  <path d="m201.25 245v227.5c0 11.602 4.6016 22.734 12.809 30.941 8.207 8.207 19.34 12.809 30.941 12.809h210c11.602 0 22.734-4.6016 30.941-12.809 8.207-8.207 12.809-19.34 12.809-30.941v-227.5c0-4.8281-3.9219-8.75-8.75-8.75s-8.75 3.9219-8.75 8.75v227.5c0 6.9648-2.7656 13.633-7.6836 18.566-4.9336 4.918-11.602 7.6836-18.566 7.6836h-210c-6.9648 0-13.633-2.7656-18.566-7.6836-4.918-4.9336-7.6836-11.602-7.6836-18.566v-227.5c0-4.8281-3.9219-8.75-8.75-8.75s-8.75 3.9219-8.75 8.75z"/>
  <path d="m210 113.75h280l0.36719-0.050781c1.6797-0.24609 8.3828-1.7148 8.3828-8.9258v-17.273c0-11.602-4.6016-22.734-12.809-30.941-8.207-8.207-19.34-12.809-30.941-12.809h-210c-11.602 0-22.734 4.6016-30.941 12.809-8.207 8.207-12.809 19.34-12.809 30.941v17.5l8.75 8.75zm271.25-17.5h-262.5v-8.75c0-6.9648 2.7656-13.633 7.6836-18.566 4.9336-4.918 11.602-7.6836 18.566-7.6836h210c6.9648 0 13.633 2.7656 18.566 7.6836 4.918 4.9336 7.6836 11.602 7.6836 18.566z"/>
  <path d="m498.75 472.5v-17.5c0-4.8281-3.9219-8.75-8.75-8.75h-280l-8.75 8.75v17.5c0 11.602 4.6016 22.734 12.809 30.941 8.207 8.207 19.34 12.809 30.941 12.809h210c11.602 0 22.734-4.6016 30.941-12.809 8.207-8.207 12.809-19.34 12.809-30.941zm-17.5-8.75v8.75c0 6.9648-2.7656 13.633-7.6836 18.566-4.9336 4.918-11.602 7.6836-18.566 7.6836h-210c-6.9648 0-13.633-2.7656-18.566-7.6836-4.918-4.9336-7.6836-11.602-7.6836-18.566v-8.75z"/>
  <path d="m315.91 490h70c4.8281 0 8.75-3.9219 8.75-8.75s-3.9219-8.75-8.75-8.75h-70c-4.832 0-8.75 3.9219-8.75 8.75s3.918 8.75 8.75 8.75z"/>
  <path d="m333.78 87.5h34.266c4.8281 0 8.75-3.9219 8.75-8.75s-3.9219-8.75-8.75-8.75h-34.266c-4.8281 0-8.75 3.9219-8.75 8.75s3.9219 8.75 8.75 8.75z"/>
  <path d="m210 253.75c11.602 0 22.734-4.6016 30.941-12.809 8.207-8.207 12.809-19.34 12.809-30.941v-17.5c0-4.8281-3.9219-8.75-8.75-8.75h-70c-4.8281 0-8.75 3.9219-8.75 8.75v17.5c0 11.602 4.6016 22.734 12.809 30.941 8.207 8.207 19.34 12.809 30.941 12.809zm0-17.5c-6.9648 0-13.633-2.7656-18.566-7.6836-4.918-4.9336-7.6836-11.602-7.6836-18.566v-8.75h52.5v8.75c0 6.9648-2.7656 13.633-7.6836 18.566-4.9336 4.918-11.602 7.6836-18.566 7.6836z"/>
  <path d="m280 253.75c11.602 0 22.734-4.6016 30.941-12.809 8.207-8.207 12.809-19.34 12.809-30.941v-17.5c0-4.8281-3.9219-8.75-8.75-8.75h-70c-4.8281 0-8.75 3.9219-8.75 8.75v17.5c0 11.602 4.6016 22.734 12.809 30.941 8.207 8.207 19.34 12.809 30.941 12.809zm0-17.5c-6.9648 0-13.633-2.7656-18.566-7.6836-4.918-4.9336-7.6836-11.602-7.6836-18.566v-8.75h52.5v8.75c0 6.9648-2.7656 13.633-7.6836 18.566-4.9336 4.918-11.602 7.6836-18.566 7.6836z"/>
  <path d="m350 253.75c11.602 0 22.734-4.6016 30.941-12.809 8.207-8.207 12.809-19.34 12.809-30.941v-17.5c0-4.8281-3.9219-8.75-8.75-8.75h-70c-4.8281 0-8.75 3.9219-8.75 8.75v17.5c0 11.602 4.6016 22.734 12.809 30.941 8.207 8.207 19.34 12.809 30.941 12.809zm0-17.5c-6.9648 0-13.633-2.7656-18.566-7.6836-4.918-4.9336-7.6836-11.602-7.6836-18.566v-8.75h52.5v8.75c0 6.9648-2.7656 13.633-7.6836 18.566-4.9336 4.918-11.602 7.6836-18.566 7.6836z"/>
  <path d="m420 253.75c11.602 0 22.734-4.6016 30.941-12.809 8.207-8.207 12.809-19.34 12.809-30.941v-17.5c0-4.8281-3.9219-8.75-8.75-8.75h-70c-4.8281 0-8.75 3.9219-8.75 8.75v17.5c0 11.602 4.6016 22.734 12.809 30.941 8.207 8.207 19.34 12.809 30.941 12.809zm0-17.5c-6.9648 0-13.633-2.7656-18.566-7.6836-4.918-4.9336-7.6836-11.602-7.6836-18.566v-8.75h52.5v8.75c0 6.9648-2.7656 13.633-7.6836 18.566-4.9336 4.918-11.602 7.6836-18.566 7.6836z"/>
  <path d="m490 253.75c11.602 0 22.734-4.6016 30.941-12.809 8.207-8.207 12.809-19.34 12.809-30.941v-17.5c0-4.8281-3.9219-8.75-8.75-8.75h-70c-4.8281 0-8.75 3.9219-8.75 8.75v17.5c0 11.602 4.6016 22.734 12.809 30.941 8.207 8.207 19.34 12.809 30.941 12.809zm0-17.5c-6.9648 0-13.633-2.7656-18.566-7.6836-4.918-4.9336-7.6836-11.602-7.6836-18.566v-8.75h52.5v8.75c0 6.9648-2.7656 13.633-7.6836 18.566-4.9336 4.918-11.602 7.6836-18.566 7.6836z"/>
  <path d="m376.07 103.29c-0.80469-4.0938-4.4102-7.0352-8.5742-7.0352h-35c-4.1641 0-7.7695 2.9414-8.5742 7.0352l-17.5 87.5c-0.52734 2.5742 0.14062 5.2305 1.8008 7.2617 1.6641 2.0312 4.1484 3.2031 6.7734 3.2031h70c2.625 0 5.1094-1.1719 6.7734-3.2031 1.6602-2.0312 2.3281-4.6875 1.8008-7.2617zm-15.75 10.465 14 70h-48.648l14-70z"/>
  <path d="m446.07 103.29c-0.80469-4.0938-4.4102-7.0352-8.5742-7.0352h-70c-2.625 0-5.1094 1.1719-6.7734 3.2031-1.6602 2.0312-2.3281 4.6875-1.8008 7.2617l17.5 87.5c0.80469 4.0938 4.4102 7.0352 8.5742 7.0352h70c2.625 0 5.1094-1.1719 6.7734-3.2031 1.6602-2.0312 2.3281-4.6875 1.8008-7.2617zm-15.75 10.465 14 70h-52.148l-14-70z"/>
  <path d="m271.07 106.71c0.52734-2.5742-0.14062-5.2305-1.8008-7.2617-1.6641-2.0312-4.1484-3.2031-6.7734-3.2031h-52.5c-3.5703 0-6.7891 2.1719-8.1211 5.4961l-35 87.5c-1.082 2.6953-0.75 5.7578 0.875 8.1523 1.6289 2.418 4.3398 3.8516 7.2461 3.8516h70c4.1641 0 7.7695-2.9414 8.5742-7.0352zm-19.25 7.0352-14 70h-49.891l28-70z"/>
  <path d="m498.12 101.75c-1.332-3.3242-4.5508-5.4961-8.1211-5.4961h-52.5c-2.625 0-5.1094 1.1719-6.7734 3.2031-1.6602 2.0312-2.3281 4.6875-1.8008 7.2617l17.5 87.5c0.80469 4.0938 4.4102 7.0352 8.5742 7.0352h70c2.9062 0 5.6172-1.4336 7.2461-3.8516 1.625-2.3945 1.957-5.457 0.875-8.1523zm-14.055 12.004 28 70h-49.891l-14-70z"/>
  <path d="m341.07 106.71c0.52734-2.5742-0.14062-5.2305-1.8008-7.2617-1.6641-2.0312-4.1484-3.2031-6.7734-3.2031h-70c-4.1641 0-7.7695 2.9414-8.5742 7.0352l-17.5 87.5c-0.52734 2.5742 0.14062 5.2305 1.8008 7.2617 1.6641 2.0312 4.1484 3.2031 6.7734 3.2031h70c4.1641 0 7.7695-2.9414 8.5742-7.0352zm-19.25 7.0352-14 70h-52.148l14-70z"/>
  <path d="m288.75 288.75c0-4.8281-3.9219-8.75-8.75-8.75h-35c-4.8281 0-8.75 3.9219-8.75 8.75v35c0 4.8281 3.9219 8.75 8.75 8.75h35c4.8281 0 8.75-3.9219 8.75-8.75zm-17.5 8.75v17.5h-17.5v-17.5z"/>
  <path d="m288.75 376.25c0-4.8281-3.9219-8.75-8.75-8.75h-35c-4.8281 0-8.75 3.9219-8.75 8.75v35c0 4.8281 3.9219 8.75 8.75 8.75h35c4.8281 0 8.75-3.9219 8.75-8.75zm-17.5 8.75v17.5h-17.5v-17.5z"/>
  <path d="m376.25 288.75c0-4.8281-3.9219-8.75-8.75-8.75h-35c-4.8281 0-8.75 3.9219-8.75 8.75v35c0 4.8281 3.9219 8.75 8.75 8.75h35c4.8281 0 8.75-3.9219 8.75-8.75zm-17.5 8.75v17.5h-17.5v-17.5z"/>
  <path d="m376.25 376.25c0-4.8281-3.9219-8.75-8.75-8.75h-35c-4.8281 0-8.75 3.9219-8.75 8.75v35c0 4.8281 3.9219 8.75 8.75 8.75h35c4.8281 0 8.75-3.9219 8.75-8.75zm-17.5 8.75v17.5h-17.5v-17.5z"/>
  <path d="m463.75 288.75c0-4.8281-3.9219-8.75-8.75-8.75h-35c-4.8281 0-8.75 3.9219-8.75 8.75v35c0 4.8281 3.9219 8.75 8.75 8.75h35c4.8281 0 8.75-3.9219 8.75-8.75zm-17.5 8.75v17.5h-17.5v-17.5z"/>
  <path d="m463.75 376.25c0-4.8281-3.9219-8.75-8.75-8.75h-35c-4.8281 0-8.75 3.9219-8.75 8.75v35c0 4.8281 3.9219 8.75 8.75 8.75h35c4.8281 0 8.75-3.9219 8.75-8.75zm-17.5 8.75v17.5h-17.5v-17.5z"/>
 </g>
</svg>
