<?xml version="1.0" encoding="UTF-8"?>
<svg width="700pt" height="700pt" version="1.1" viewBox="0 0 700 700" xmlns="http://www.w3.org/2000/svg" xmlns:xlink="http://www.w3.org/1999/xlink">
 <defs>
  <symbol id="u" overflow="visible">
   <path d="m1.6875-0.09375c-0.085938 0.042969-0.17969 0.074219-0.28125 0.09375-0.09375 0.019531-0.1875 0.03125-0.28125 0.03125-0.3125 0-0.55859-0.082031-0.73438-0.25-0.17969-0.17578-0.26562-0.41016-0.26562-0.70312 0-0.28906 0.085938-0.51953 0.26562-0.6875 0.17578-0.16406 0.42188-0.25 0.73438-0.25 0.09375 0 0.1875 0.011719 0.28125 0.03125 0.10156 0.023437 0.19531 0.054687 0.28125 0.09375v0.39062c-0.09375-0.0625-0.18359-0.10938-0.26562-0.14062-0.085937-0.03125-0.17188-0.046875-0.26562-0.046875-0.16797 0-0.30469 0.058594-0.40625 0.17188-0.09375 0.10547-0.14062 0.25-0.14062 0.4375 0 0.19922 0.046875 0.35156 0.14062 0.45312 0.10156 0.10547 0.23828 0.15625 0.40625 0.15625 0.09375 0 0.17969-0.007812 0.26562-0.03125 0.082031-0.03125 0.17188-0.078125 0.26562-0.14062z"/>
  </symbol>
  <symbol id="d" overflow="visible">
   <path d="m1.2344-1c-0.042969-0.019531-0.085937-0.03125-0.125-0.03125-0.03125-0.007812-0.070313-0.015625-0.10938-0.015625-0.11719 0-0.20312 0.039063-0.26562 0.10938-0.054687 0.0625-0.078125 0.16406-0.078125 0.29688v0.64062h-0.4375v-1.375h0.4375v0.21875c0.050781-0.082031 0.11328-0.14453 0.1875-0.1875 0.070312-0.039062 0.16016-0.0625 0.26562-0.0625h0.046875 0.078125z"/>
  </symbol>
  <symbol id="a" overflow="visible">
   <path d="m1.5781-0.6875v0.125h-1.0156c0.007812 0.10547 0.046875 0.18359 0.10938 0.23438 0.0625 0.054687 0.14844 0.078125 0.26562 0.078125 0.09375 0 0.1875-0.015625 0.28125-0.046875s0.19141-0.070313 0.29688-0.125v0.34375c-0.10547 0.03125-0.21094 0.058594-0.3125 0.078125-0.10547 0.019531-0.21094 0.03125-0.3125 0.03125-0.25 0-0.44531-0.0625-0.57812-0.1875-0.13672-0.125-0.20312-0.30078-0.20312-0.53125 0-0.21875 0.066406-0.39062 0.20312-0.51562 0.13281-0.13281 0.32031-0.20312 0.5625-0.20312 0.20703 0 0.375 0.070312 0.5 0.20312 0.13281 0.125 0.20312 0.29688 0.20312 0.51562zm-0.45312-0.15625c0-0.082031-0.027344-0.14453-0.078125-0.1875-0.042969-0.050781-0.10156-0.078125-0.17188-0.078125-0.09375 0-0.16797 0.027344-0.21875 0.078125-0.054688 0.042969-0.085938 0.10547-0.09375 0.1875z"/>
  </symbol>
  <symbol id="c" overflow="visible">
   <path d="m0.82812-0.625c-0.09375 0-0.16797 0.015625-0.21875 0.046875-0.042969 0.03125-0.0625 0.078125-0.0625 0.14062s0.015625 0.10938 0.046875 0.14062c0.039062 0.03125 0.097656 0.046875 0.17188 0.046875 0.082031 0 0.14844-0.03125 0.20312-0.09375 0.0625-0.0625 0.09375-0.13281 0.09375-0.21875v-0.0625zm0.67188-0.15625v0.78125h-0.4375v-0.20312c-0.0625 0.085937-0.13281 0.14844-0.20312 0.1875-0.074219 0.03125-0.16406 0.046875-0.26562 0.046875-0.14844 0-0.26562-0.039062-0.35938-0.125-0.085937-0.082031-0.125-0.1875-0.125-0.3125 0-0.16406 0.050781-0.28516 0.15625-0.35938 0.11328-0.070313 0.28906-0.10938 0.53125-0.10938h0.26562v-0.046875c0-0.0625-0.03125-0.10938-0.09375-0.14062-0.054688-0.03125-0.13672-0.046875-0.25-0.046875-0.09375 0-0.18359 0.011719-0.26562 0.03125-0.085937 0.011719-0.15625 0.039063-0.21875 0.078125v-0.34375c0.09375-0.019531 0.1875-0.035156 0.28125-0.046875 0.09375-0.007813 0.1875-0.015625 0.28125-0.015625 0.25 0 0.42578 0.054688 0.53125 0.15625 0.11328 0.09375 0.17188 0.25 0.17188 0.46875z"/>
  </symbol>
  <symbol id="b" overflow="visible">
   <path d="m0.6875-1.7656v0.39062h0.45312v0.3125h-0.45312v0.57812c0 0.074219 0.007812 0.12109 0.03125 0.14062 0.03125 0.023438 0.082031 0.03125 0.15625 0.03125h0.23438v0.3125h-0.375c-0.17969 0-0.30469-0.035156-0.375-0.10938-0.074219-0.070313-0.10938-0.19531-0.10938-0.375v-0.57812h-0.21875v-0.3125h0.21875v-0.39062z"/>
  </symbol>
  <symbol id="k" overflow="visible">
   <path d="m1.1406-1.1719v-0.73438h0.45312v1.9062h-0.45312v-0.20312c-0.054687 0.085937-0.11719 0.14844-0.1875 0.1875-0.074219 0.03125-0.16406 0.046875-0.26562 0.046875-0.16797 0-0.30859-0.066406-0.42188-0.20312-0.10547-0.13281-0.15625-0.30469-0.15625-0.51562 0-0.20703 0.050781-0.37891 0.15625-0.51562 0.11328-0.13281 0.25391-0.20312 0.42188-0.20312 0.10156 0 0.19141 0.023438 0.26562 0.0625 0.070313 0.03125 0.13281 0.089844 0.1875 0.17188zm-0.28125 0.89062c0.09375 0 0.16016-0.03125 0.20312-0.09375 0.050781-0.070312 0.078125-0.17578 0.078125-0.3125 0-0.13281-0.027344-0.23438-0.078125-0.29688-0.042969-0.070313-0.10938-0.10938-0.20312-0.10938s-0.16797 0.039062-0.21875 0.10938c-0.054687 0.0625-0.078125 0.16406-0.078125 0.29688 0 0.13672 0.023438 0.24219 0.078125 0.3125 0.050781 0.0625 0.125 0.09375 0.21875 0.09375z"/>
  </symbol>
  <symbol id="j" overflow="visible">
   <path d="m0.9375-0.28125c0.09375 0 0.16406-0.03125 0.21875-0.09375 0.050781-0.070312 0.078125-0.17578 0.078125-0.3125 0-0.13281-0.027344-0.23438-0.078125-0.29688-0.054688-0.070313-0.125-0.10938-0.21875-0.10938s-0.16797 0.039062-0.21875 0.10938c-0.042969 0.074219-0.0625 0.17188-0.0625 0.29688 0 0.13672 0.019531 0.24219 0.0625 0.3125 0.050781 0.0625 0.125 0.09375 0.21875 0.09375zm-0.28125-0.89062c0.050781-0.082031 0.11328-0.14062 0.1875-0.17188 0.082031-0.039062 0.17188-0.0625 0.26562-0.0625 0.16406 0 0.30078 0.070312 0.40625 0.20312 0.11328 0.13672 0.17188 0.30859 0.17188 0.51562 0 0.21094-0.058594 0.38281-0.17188 0.51562-0.10547 0.13672-0.24219 0.20312-0.40625 0.20312-0.09375 0-0.18359-0.015625-0.26562-0.046875-0.074219-0.039062-0.13672-0.10156-0.1875-0.1875v0.20312h-0.4375v-1.9062h0.4375z"/>
  </symbol>
  <symbol id="i" overflow="visible">
   <path d="m0.03125-1.375h0.4375l0.375 0.9375 0.3125-0.9375h0.4375l-0.57812 1.5c-0.0625 0.15625-0.13281 0.26562-0.20312 0.32812-0.074219 0.0625-0.17969 0.09375-0.3125 0.09375h-0.25v-0.29688h0.14062c0.070313 0 0.125-0.011719 0.15625-0.03125 0.039063-0.023438 0.066406-0.0625 0.078125-0.125l0.015625-0.046875z"/>
  </symbol>
  <symbol id="h" overflow="visible">
   <path d="m0.70312-1.4688v1.1094h0.17188c0.1875 0 0.33203-0.046875 0.4375-0.14062 0.10156-0.09375 0.15625-0.23438 0.15625-0.42188 0-0.17578-0.054688-0.3125-0.15625-0.40625-0.09375-0.09375-0.24219-0.14062-0.4375-0.14062zm-0.46875-0.35938h0.5c0.26953 0 0.47266 0.023437 0.60938 0.0625 0.14453 0.03125 0.26562 0.09375 0.35938 0.1875 0.082031 0.085937 0.14453 0.18359 0.1875 0.29688 0.039063 0.10547 0.0625 0.22656 0.0625 0.35938 0 0.13672-0.023437 0.26172-0.0625 0.375-0.042969 0.10547-0.10547 0.19922-0.1875 0.28125-0.09375 0.09375-0.21484 0.16406-0.35938 0.20312-0.13672 0.042969-0.33984 0.0625-0.60938 0.0625h-0.5z"/>
  </symbol>
  <symbol id="g" overflow="visible">
   <path d="m1.4844-1.1406c0.050781-0.09375 0.11328-0.16016 0.1875-0.20312 0.082031-0.039062 0.17188-0.0625 0.26562-0.0625 0.15625 0 0.27344 0.054688 0.35938 0.15625 0.082031 0.09375 0.125 0.23047 0.125 0.40625v0.84375h-0.4375v-0.71875-0.03125-0.046875c0-0.10156-0.015625-0.17578-0.046875-0.21875-0.03125-0.039063-0.078125-0.0625-0.14062-0.0625-0.085937 0-0.14844 0.039063-0.1875 0.10938-0.042969 0.0625-0.070313 0.16406-0.078125 0.29688v0.67188h-0.4375v-0.71875c0-0.15625-0.015625-0.25391-0.046875-0.29688-0.023437-0.039063-0.0625-0.0625-0.125-0.0625-0.09375 0-0.16406 0.039063-0.20312 0.10938-0.042969 0.0625-0.0625 0.16406-0.0625 0.29688v0.67188h-0.45312v-1.375h0.45312v0.20312c0.050781-0.082031 0.10938-0.14062 0.17188-0.17188 0.070313-0.039062 0.14844-0.0625 0.23438-0.0625 0.10156 0 0.19141 0.027344 0.26562 0.078125 0.070313 0.042969 0.125 0.10547 0.15625 0.1875z"/>
  </symbol>
  <symbol id="t" overflow="visible">
   <path d="m0.21875-1.375h0.4375v1.375h-0.4375zm0-0.53125h0.4375v0.35938h-0.4375z"/>
  </symbol>
  <symbol id="f" overflow="visible">
   <path d="m1.5938-0.84375v0.84375h-0.4375v-0.64062c0-0.11328-0.007812-0.19141-0.015625-0.23438 0-0.050781-0.011719-0.085938-0.03125-0.10938-0.011719-0.03125-0.03125-0.050781-0.0625-0.0625-0.03125-0.019531-0.0625-0.03125-0.09375-0.03125-0.09375 0-0.16797 0.039063-0.21875 0.10938-0.054687 0.074219-0.078125 0.17188-0.078125 0.29688v0.67188h-0.4375v-1.375h0.4375v0.20312c0.0625-0.082031 0.12891-0.14062 0.20312-0.17188 0.070313-0.039062 0.15625-0.0625 0.25-0.0625 0.15625 0 0.27344 0.054688 0.35938 0.15625 0.082031 0.09375 0.125 0.23047 0.125 0.40625z"/>
  </symbol>
  <symbol id="s" overflow="visible">
   <path d="m0.23438-1.8281h0.46875v0.6875h0.70312v-0.6875h0.46875v1.8281h-0.46875v-0.78125h-0.70312v0.78125h-0.46875z"/>
  </symbol>
  <symbol id="r" overflow="visible">
   <path d="m1.1094-1.9062v0.28125h-0.23438c-0.0625 0-0.10938 0.011719-0.14062 0.03125-0.023437 0.023438-0.03125 0.0625-0.03125 0.125v0.09375h0.375v0.3125h-0.375v1.0625h-0.4375v-1.0625h-0.21875v-0.3125h0.21875v-0.09375c0-0.15625 0.039063-0.26562 0.125-0.32812 0.082031-0.070313 0.21094-0.10938 0.39062-0.10938z"/>
  </symbol>
  <symbol id="e" overflow="visible">
   <path d="m0.85938-1.0938c-0.09375 0-0.16797 0.039062-0.21875 0.10938-0.054687 0.0625-0.078125 0.16406-0.078125 0.29688 0 0.13672 0.023438 0.24219 0.078125 0.3125 0.050781 0.0625 0.125 0.09375 0.21875 0.09375 0.10156 0 0.17578-0.03125 0.21875-0.09375 0.050781-0.070312 0.078125-0.17578 0.078125-0.3125 0-0.13281-0.027344-0.23438-0.078125-0.29688-0.042969-0.070313-0.11719-0.10938-0.21875-0.10938zm0-0.3125c0.23828 0 0.42578 0.0625 0.5625 0.1875 0.13281 0.125 0.20312 0.30469 0.20312 0.53125 0 0.23047-0.070312 0.40625-0.20312 0.53125-0.13672 0.125-0.32422 0.1875-0.5625 0.1875-0.23047 0-0.41406-0.0625-0.54688-0.1875-0.13672-0.125-0.20312-0.30078-0.20312-0.53125 0-0.22656 0.066406-0.40625 0.20312-0.53125 0.13281-0.125 0.31641-0.1875 0.54688-0.1875z"/>
  </symbol>
  <symbol id="q" overflow="visible">
   <path d="m1.5938-0.84375v0.84375h-0.4375v-0.64062c0-0.11328-0.007812-0.19141-0.015625-0.23438 0-0.050781-0.011719-0.085938-0.03125-0.10938-0.011719-0.03125-0.03125-0.050781-0.0625-0.0625-0.03125-0.019531-0.0625-0.03125-0.09375-0.03125-0.09375 0-0.16797 0.039063-0.21875 0.10938-0.054687 0.074219-0.078125 0.17188-0.078125 0.29688v0.67188h-0.4375v-1.9062h0.4375v0.73438c0.0625-0.082031 0.12891-0.14062 0.20312-0.17188 0.070313-0.039062 0.15625-0.0625 0.25-0.0625 0.15625 0 0.27344 0.054688 0.35938 0.15625 0.082031 0.09375 0.125 0.23047 0.125 0.40625z"/>
  </symbol>
  <symbol id="p" overflow="visible">
   <path d="m0.23438-1.8281h0.53125l0.65625 1.25v-1.25h0.45312v1.8281h-0.53125l-0.67188-1.2656v1.2656h-0.4375z"/>
  </symbol>
  <symbol id="o" overflow="visible">
   <path d="m0.20312-0.53125v-0.84375h0.4375v0.14062 0.28125 0.21875 0.25c0.007813 0.042969 0.019531 0.074219 0.03125 0.09375 0.019531 0.03125 0.039063 0.058594 0.0625 0.078125 0.03125 0.011719 0.066406 0.015625 0.10938 0.015625 0.09375 0 0.16406-0.035156 0.21875-0.10938 0.050781-0.070312 0.078125-0.17188 0.078125-0.29688v-0.67188h0.4375v1.375h-0.4375v-0.20312c-0.0625 0.085937-0.13672 0.14844-0.21875 0.1875-0.074219 0.03125-0.15234 0.046875-0.23438 0.046875-0.15625 0-0.27734-0.046875-0.35938-0.14062-0.085937-0.09375-0.125-0.23438-0.125-0.42188z"/>
  </symbol>
  <symbol id="n" overflow="visible">
   <path d="m0.23438-1.8281h0.78125c0.22656 0 0.40625 0.054687 0.53125 0.15625 0.125 0.10547 0.1875 0.25 0.1875 0.4375s-0.0625 0.33594-0.1875 0.4375c-0.125 0.10547-0.30469 0.15625-0.53125 0.15625h-0.3125v0.64062h-0.46875zm0.46875 0.34375v0.5h0.26562c0.09375 0 0.16016-0.019531 0.20312-0.0625 0.050781-0.039063 0.078125-0.10156 0.078125-0.1875 0-0.082031-0.027344-0.14453-0.078125-0.1875-0.042969-0.039063-0.10938-0.0625-0.20312-0.0625z"/>
  </symbol>
  <symbol id="m" overflow="visible">
   <path d="m0.21875-1.375h0.4375v1.3438c0 0.1875-0.046875 0.32812-0.14062 0.42188-0.085937 0.10156-0.21094 0.15625-0.375 0.15625h-0.21875v-0.29688h0.078125c0.082031 0 0.14062-0.023438 0.17188-0.0625 0.03125-0.03125 0.046875-0.10547 0.046875-0.21875zm0-0.53125h0.4375v0.35938h-0.4375z"/>
  </symbol>
  <symbol id="l" overflow="visible">
   <path d="m1.3281-1.3281v0.35938c-0.0625-0.039062-0.125-0.070312-0.1875-0.09375-0.0625-0.019531-0.125-0.03125-0.1875-0.03125-0.125 0-0.22656 0.039062-0.29688 0.10938-0.0625 0.074219-0.09375 0.17188-0.09375 0.29688s0.03125 0.22656 0.09375 0.29688c0.070312 0.074219 0.17188 0.10938 0.29688 0.10938 0.070313 0 0.14062-0.007812 0.20312-0.03125 0.0625-0.019531 0.11719-0.050781 0.17188-0.09375v0.35938c-0.074219 0.03125-0.14844 0.050781-0.21875 0.0625-0.074219 0.0078125-0.14062 0.015625-0.20312 0.015625-0.25 0-0.44922-0.0625-0.59375-0.1875-0.13672-0.125-0.20312-0.30078-0.20312-0.53125 0-0.22656 0.066406-0.40625 0.20312-0.53125 0.14453-0.125 0.34375-0.1875 0.59375-0.1875 0.070312 0 0.14062 0.007812 0.20312 0.015625 0.070313 0.011719 0.14453 0.03125 0.21875 0.0625z"/>
  </symbol>
 </defs>
 <g>
  <path d="m335.45 188.87v146.7c-11.781 2.4414-26.074 7.4062-41.762 14.512-49.797 22.551-115.35 66.312-157.95 107.53-16.32 15.793-29.324 31.301-37.184 45.148-6.2305 10.973-9.3477 21.215-9.3477 30.078 0 7.2383 5.8672 13.102 13.102 13.102h495.71c7.2344 0 13.102-5.8672 13.102-13.102 0-7.4297-2.8398-16.734-8.7852-27.09-7.2461-12.617-19.277-27.492-34.551-43.078-34.289-34.992-85.148-74.027-131.77-99.652-27.395-15.059-53.523-25.363-74.363-28.309v-15.094c22.035 0.67188 44.285-7.3945 61.086-24.195 20.207-20.211 27.781-48.305 22.707-74.422-1.0195-5.2422-5.1172-9.3438-10.359-10.359-25.695-4.9961-53.301 2.25-73.434 21.73v-43.5c42.031 4.6875 85.723-9.0742 117.92-41.266 35.164-35.16 48.336-84.039 39.5-129.48-1.0195-5.2422-5.1172-9.3438-10.359-10.363-45.445-8.8359-94.324 4.3359-129.49 39.5-13.434 13.434-23.66 28.875-30.672 45.355-7.0117-16.484-17.238-31.922-30.672-45.355-35.164-35.16-84.043-48.332-129.49-39.5-5.2422 1.0195-9.3438 5.1172-10.359 10.363-8.8359 45.445 4.3398 94.32 39.5 129.48 32.191 32.195 75.887 45.953 117.92 41.266zm14.719 171.18c19.062 0 45.207 10.535 73.227 25.938 44.465 24.438 92.973 61.656 125.68 95.027 13.438 13.711 24.168 26.684 30.543 37.785 0.17969 0.31641 0.35938 0.62891 0.53516 0.9375h-461.05c1.8555-3.75 4.3281-7.7109 7.2227-11.871 12.039-17.293 31.77-36.594 54.789-55.461 35.336-28.961 78.418-56.746 114.62-74.332 22.387-10.875 41.777-18.023 54.445-18.023zm140.18 116.79h-29.363c-7.2305 0-13.102 5.8711-13.102 13.102 0 7.2305 5.8711 13.102 13.102 13.102h29.363c7.2305 0 13.102-5.8711 13.102-13.102 0-7.2305-5.8711-13.102-13.102-13.102zm-223.81 26.207h67.133c7.2305 0 13.102-5.8711 13.102-13.102 0-7.2305-5.8711-13.102-13.102-13.102h-67.133c-7.2305 0-13.102 5.8711-13.102 13.102 0 7.2305 5.8711 13.102 13.102 13.102zm-6.7891-67.516h-29.367c-7.2305 0-13.102 5.8711-13.102 13.102 0 7.2305 5.8711 13.102 13.102 13.102h29.367c7.2305 0 13.102-5.8711 13.102-13.102 0-7.2305-5.8711-13.102-13.102-13.102zm112.64 14.285h61.965c7.2305 0 13.102-5.8711 13.102-13.102 0-7.2305-5.8711-13.102-13.102-13.102h-61.965c-7.2305 0-13.102 5.8711-13.102 13.102 0 7.2305 5.8711 13.102 13.102 13.102zm-58.004-38.125h20.652c7.2305 0 13.102-5.8711 13.102-13.102 0-7.2305-5.8711-13.102-13.102-13.102h-20.652c-7.2305 0-13.102 5.8711-13.102 13.102 0 7.2305 5.8711 13.102 13.102 13.102zm106.36-176.36c0.40625 14.996-5.1055 30.125-16.539 41.559-11.434 11.434-26.559 16.941-41.559 16.539-0.40625-14.996 5.1055-30.125 16.539-41.559s26.559-16.945 41.559-16.539zm73.988-203.25c4 34.539-7.2266 70.512-33.695 96.98s-62.441 37.695-96.98 33.695c-4-34.543 7.2266-70.516 33.695-96.984s62.441-37.695 96.984-33.695zm-292.37 0c34.543-4.0039 70.516 7.2266 96.984 33.695s37.695 62.441 33.695 96.984c-34.539 4-70.516-7.2266-96.98-33.695-26.469-26.469-37.695-62.441-33.695-96.98z" fill-rule="evenodd"/>
  <use x="70" y="567.546875" xlink:href="#u"/>
  <use x="71.847656" y="567.546875" xlink:href="#d"/>
  <use x="73.085938" y="567.546875" xlink:href="#a"/>
  <use x="74.792969" y="567.546875" xlink:href="#c"/>
  <use x="76.492188" y="567.546875" xlink:href="#b"/>
  <use x="77.691406" y="567.546875" xlink:href="#a"/>
  <use x="79.398438" y="567.546875" xlink:href="#k"/>
  <use x="82.078125" y="567.546875" xlink:href="#j"/>
  <use x="83.878906" y="567.546875" xlink:href="#i"/>
  <use x="86.394531" y="567.546875" xlink:href="#h"/>
  <use x="88.480469" y="567.546875" xlink:href="#c"/>
  <use x="90.179688" y="567.546875" xlink:href="#g"/>
  <use x="92.800781" y="567.546875" xlink:href="#t"/>
  <use x="93.664062" y="567.546875" xlink:href="#c"/>
  <use x="95.359375" y="567.546875" xlink:href="#f"/>
  <use x="98.027344" y="567.546875" xlink:href="#s"/>
  <use x="100.132812" y="567.546875" xlink:href="#a"/>
  <use x="101.839844" y="567.546875" xlink:href="#b"/>
  <use x="103.039062" y="567.546875" xlink:href="#g"/>
  <use x="105.664062" y="567.546875" xlink:href="#c"/>
  <use x="107.359375" y="567.546875" xlink:href="#f"/>
  <use x="70" y="570.0625" xlink:href="#r"/>
  <use x="71.09375" y="570.0625" xlink:href="#d"/>
  <use x="72.335938" y="570.0625" xlink:href="#e"/>
  <use x="74.0625" y="570.0625" xlink:href="#g"/>
  <use x="77.5625" y="570.0625" xlink:href="#b"/>
  <use x="78.761719" y="570.0625" xlink:href="#q"/>
  <use x="80.554688" y="570.0625" xlink:href="#a"/>
  <use x="83.136719" y="570.0625" xlink:href="#p"/>
  <use x="85.242188" y="570.0625" xlink:href="#e"/>
  <use x="86.96875" y="570.0625" xlink:href="#o"/>
  <use x="88.761719" y="570.0625" xlink:href="#f"/>
  <use x="91.429688" y="570.0625" xlink:href="#n"/>
  <use x="93.273438" y="570.0625" xlink:href="#d"/>
  <use x="94.511719" y="570.0625" xlink:href="#e"/>
  <use x="96.242188" y="570.0625" xlink:href="#m"/>
  <use x="97.101562" y="570.0625" xlink:href="#a"/>
  <use x="98.808594" y="570.0625" xlink:href="#l"/>
  <use x="100.300781" y="570.0625" xlink:href="#b"/>
 </g>
</svg>
